<svg width="24" height="24" xmlns="http://www.w3.org/2000/svg" color="#000000" stroke-width="1.5" fill="none">

 <g>
  <title>Layer 1</title>
  <path transform="rotate(90 11.8539 11.8426)" id="svg_1" d="m13.879,7.697l2.121,2.12a1,1 0 0 1 0,1.415l-7.637,7.638a1.001,1.001 0 0 1 -0.326,0.218l-2.497,1.026c-1.233,0.508 -2.466,-0.725 -1.958,-1.958l1.028,-2.496a0.999,0.999 0 0 1 0.218,-0.327l7.636,-7.636a1,1 0 0 1 1.415,0zm0,-4.243l2.121,2.121m4.243,4.243l-2.123,-2.121m-2.12,-2.122l1.413,-1.414a1,1 0 0 1 1.414,0l0.708,0.707a1,1 0 0 1 0,1.414l-1.415,1.415m-2.12,-2.122l2.12,2.122" stroke-linejoin="round" stroke-linecap="round" stroke-width="1.5" stroke="#eeeeee"/>
 </g>
</svg>