<svg width="23.999999999999996" height="23.999999999999996" xmlns="http://www.w3.org/2000/svg" color="#000000" stroke-width="1.5" fill="none">

 <g>
  <title>Layer 1</title>
  <path transform="rotate(90 12.2973 11.9599)" id="svg_1" d="m14.363,5.652l1.48,-1.48a2,2 0 0 1 2.829,0l1.414,1.414a2,2 0 0 1 0,2.828l-1.48,1.48m-4.243,-4.242l-9.616,9.615a2,2 0 0 0 -0.578,1.238l-0.242,2.74a1,1 0 0 0 1.084,1.085l2.74,-0.242a2,2 0 0 0 1.24,-0.578l9.615,-9.616m-4.243,-4.242l4.243,4.242" stroke-linejoin="round" stroke-linecap="round" stroke-width="1.5" stroke="#eeeeee"/>
 </g>
</svg>